<svg width="13" height="13" viewBox="0 0 13 13" fill="none" xmlns="http://www.w3.org/2000/svg">
<path d="M6.5 1.84961L1.44444 5.89406V11.5556H5.05556V8.66667H7.94444V11.5556H11.5556V6.24144C11.5556 6.13313 11.5313 6.0262 11.4844 5.92856C11.4375 5.83093 11.3693 5.74508 11.2847 5.67739L6.5 1.84961ZM6.5 0L12.1868 4.55C12.4404 4.75286 12.6451 5.01012 12.7859 5.30278C12.9266 5.59543 12.9998 5.91598 13 6.24072V11.5556C13 11.9386 12.8478 12.306 12.5769 12.5769C12.306 12.8478 11.9386 13 11.5556 13H1.44444C1.06135 13 0.693954 12.8478 0.423068 12.5769C0.152182 12.306 0 11.9386 0 11.5556V5.89406C2.70094e-05 5.67756 0.0487202 5.46383 0.142479 5.26869C0.236237 5.07355 0.372663 4.90198 0.541667 4.76667L6.5 0Z" fill="white"/>
</svg>
