<svg width="11" height="15" viewBox="0 0 11 15" fill="none" xmlns="http://www.w3.org/2000/svg">
<path d="M8.40783 0C10.01 0 10.8111 0.684 10.8111 1.46775C10.8111 2.4465 9.41935 3.35175 7.60793 3.35175C6.09065 3.35175 5.20587 2.78925 5.24772 1.85925C5.24772 1.077 6.30109 0 8.40783 0ZM3.47815 15C2.21315 15 1.28652 14.511 2.1713 12.357L3.62283 8.538C3.87511 7.9275 3.91696 7.68225 3.62283 7.68225C3.2438 7.68225 1.60337 8.10375 0.631304 8.52L0 7.86C3.07522 6.2205 6.61315 5.25975 8.13163 5.25975C9.39543 5.25975 9.60587 6.2145 8.97456 7.68225L7.31141 11.6962C7.01728 12.405 7.14283 12.6495 7.43815 12.6495C7.81717 12.6495 9.06065 12.3555 10.2826 11.7443L11 12.3547C8.00848 14.265 4.74076 15 3.47815 15Z" fill="white"/>
</svg>
