<svg width="33" height="31" viewBox="0 0 33 31" fill="none" xmlns="http://www.w3.org/2000/svg">
<g clip-path="url(#clip0_48_372)">
<path d="M32.6984 29.3362L22.6782 19.8657C24.5458 17.7645 25.6714 15.0612 25.6714 12.1094C25.6714 5.42161 19.9 0 12.7808 0C5.66153 0 -0.109863 5.42161 -0.109863 12.1094C-0.109863 18.7971 5.66153 24.2187 12.7808 24.2187C16.0153 24.2187 18.9698 23.0969 21.2334 21.2476L31.2396 30.7065C31.6423 31.0848 32.2956 31.0848 32.6984 30.7065C33.1005 30.3282 33.1005 29.7149 32.6984 29.3362H32.6984ZM12.7808 22.2972C6.79126 22.2972 1.93562 17.7359 1.93562 12.1094C1.93562 6.48287 6.79126 1.92152 12.7808 1.92152C18.7703 1.92152 23.6259 6.48287 23.6259 12.1094C23.6259 17.7359 18.7703 22.2972 12.7808 22.2972Z" fill="white"/>
</g>
<defs>
<clipPath id="clip0_48_372">
<rect width="33" height="31" fill="white"/>
</clipPath>
</defs>
</svg>
