<svg width="44" height="41" viewBox="0 0 44 41" fill="none" xmlns="http://www.w3.org/2000/svg">
<path d="M40.3425 24.1291L43.9536 7.47281C44.2144 6.2702 43.3424 5.125 42.1659 5.125H12.1617L11.4615 1.5367C11.2871 0.642307 10.5363 0 9.66541 0H1.83333C0.820799 0 0 0.860439 0 1.92188V3.20312C0 4.26456 0.820799 5.125 1.83333 5.125H7.17162L12.5378 32.6266C11.254 33.4006 10.3889 34.8518 10.3889 36.5156C10.3889 38.9923 12.3041 41 14.6667 41C17.0292 41 18.9444 38.9923 18.9444 36.5156C18.9444 35.2605 18.452 34.1265 17.6593 33.3125H33.674C32.8814 34.1265 32.3889 35.2605 32.3889 36.5156C32.3889 38.9923 34.3041 41 36.6667 41C39.0292 41 40.9445 38.9923 40.9445 36.5156C40.9445 34.7401 39.9599 33.2058 38.5322 32.4793L38.9536 30.5353C39.2143 29.3327 38.3423 28.1875 37.1659 28.1875H16.6617L16.1618 25.625H38.5548C39.4108 25.625 40.1528 25.0041 40.3425 24.1291Z" fill="white"/>
</svg>
