<svg width="14" height="13" viewBox="0 0 14 13" fill="none" xmlns="http://www.w3.org/2000/svg">
<path d="M10.153 12.864C9.96997 12.8638 9.78976 12.819 9.62798 12.7335L6.87848 11.2882C6.82479 11.2601 6.76509 11.2454 6.70448 11.2454C6.64387 11.2454 6.58417 11.2601 6.53048 11.2882L3.77798 12.7335C3.59218 12.8312 3.38272 12.8751 3.1733 12.86C2.96388 12.8449 2.76285 12.7716 2.59296 12.6482C2.42307 12.5248 2.2911 12.3564 2.21198 12.1619C2.13285 11.9674 2.10973 11.7546 2.14523 11.5477L2.67023 8.48621C2.68051 8.4264 2.67612 8.36498 2.65744 8.30724C2.63876 8.2495 2.60635 8.19716 2.56298 8.1547L0.339979 5.98645C0.189549 5.83991 0.0831415 5.65418 0.0327998 5.45029C-0.0175419 5.24641 -0.00980782 5.0325 0.0551267 4.83278C0.120061 4.63306 0.239603 4.4555 0.400224 4.3202C0.560845 4.1849 0.75613 4.09726 0.963979 4.06721L4.03898 3.6172C4.09905 3.60845 4.15609 3.58524 4.20521 3.54958C4.25433 3.51391 4.29406 3.46686 4.32098 3.41246L5.69573 0.626955C5.78865 0.438756 5.93236 0.280303 6.11063 0.169509C6.28889 0.0587156 6.49459 0 6.70448 0C6.91437 0 7.12007 0.0587156 7.29833 0.169509C7.4766 0.280303 7.62031 0.438756 7.71323 0.626955L9.08798 3.41246C9.11481 3.467 9.1545 3.5142 9.20362 3.55C9.25275 3.5858 9.30984 3.60912 9.36998 3.61796L12.445 4.06796C12.6528 4.09801 12.8481 4.18565 13.0087 4.32095C13.1694 4.45625 13.2889 4.63381 13.3538 4.83353C13.4188 5.03325 13.4265 5.24716 13.3762 5.45104C13.3258 5.65493 13.2194 5.84066 13.069 5.9872L10.8452 8.15546C10.8017 8.19784 10.7692 8.25015 10.7504 8.30789C10.7315 8.36563 10.727 8.42708 10.7372 8.48695L11.2622 11.5485C11.29 11.71 11.2821 11.8756 11.2391 12.0338C11.1962 12.192 11.1192 12.3389 11.0135 12.4642C10.9079 12.5895 10.7761 12.6902 10.6275 12.7592C10.4788 12.8283 10.3169 12.864 10.153 12.864ZM7.22798 10.6245L9.97598 12.0667C10.0379 12.0992 10.1077 12.1137 10.1774 12.1086C10.2471 12.1035 10.314 12.079 10.3706 12.0379C10.4271 11.9968 10.471 11.9407 10.4974 11.8759C10.5238 11.8112 10.5315 11.7404 10.5197 11.6715L9.99473 8.60995C9.96391 8.43011 9.97731 8.24547 10.0338 8.07195C10.0902 7.89843 10.188 7.74125 10.3187 7.61396L12.5425 5.44646C12.5926 5.39762 12.6281 5.33573 12.6449 5.26779C12.6617 5.19985 12.6591 5.12856 12.6375 5.06199C12.6159 4.99542 12.5761 4.93623 12.5226 4.89112C12.4691 4.846 12.404 4.81676 12.3347 4.8067L9.25973 4.35671C9.07911 4.33051 8.90758 4.26077 8.75994 4.15349C8.61229 4.04622 8.49295 3.90464 8.41223 3.74095L7.03973 0.962205C7.00609 0.90226 6.9571 0.852355 6.89778 0.817621C6.83846 0.782888 6.77097 0.76458 6.70223 0.76458C6.63349 0.76458 6.56599 0.782888 6.50668 0.817621C6.44736 0.852355 6.39837 0.90226 6.36473 0.962205L4.99223 3.7477C4.91141 3.91125 4.79204 4.05268 4.64439 4.15982C4.49675 4.26696 4.32527 4.33659 4.14473 4.36271L1.06973 4.8127C1.00047 4.82276 0.935401 4.852 0.881893 4.89712C0.828386 4.94223 0.788572 5.00142 0.766955 5.06799C0.745338 5.13456 0.742782 5.20584 0.759575 5.27379C0.776368 5.34173 0.81184 5.40362 0.861979 5.45246L3.08798 7.6177C3.21904 7.74538 3.31697 7.9031 3.3733 8.07718C3.42963 8.25126 3.44265 8.43645 3.41123 8.6167L2.88623 11.6782C2.87436 11.7472 2.88206 11.8182 2.90844 11.883C2.93482 11.9479 2.97884 12.0041 3.03551 12.0452C3.09218 12.0864 3.15924 12.1108 3.22909 12.1158C3.29894 12.1208 3.36879 12.1061 3.43073 12.0735L6.17798 10.6245C6.3398 10.5391 6.52001 10.4944 6.70298 10.4944C6.88595 10.4944 7.06616 10.5391 7.22798 10.6245Z" fill="white"/>
</svg>
